<svg xmlns="http://www.w3.org/2000/svg" width="20" height="20" viewBox="0 0 24 24" fill="#1f1f1f" aria-hidden="true">
  <path d="M12 3a9 9 0 00-3.2 17.4c0-.8 0-1.8.1-2.6l1-4.2s-.3-.6-.3-1.5c0-1.4.8-2.4 1.9-2.4.9 0 1.3.7 1.3 1.5 0 .9-.6 2.3-.9 3.6-.3 1 .6 1.9 1.7 1.9 2 0 3.6-2.1 3.6-5.2 0-2.7-1.9-4.6-4.7-4.6-3.2 0-5.1 2.4-5.1 4.9 0 1 .4 1.7.9 2.1.1.1.1.1.1.2l-.3 1.3c0 .1-.1.2-.2.1-1.4-.7-2.3-2.7-2.3-4.4 0-3.6 2.6-6.9 7.5-6.9 3.9 0 7 2.8 7 6.5 0 3.9-2.5 7-6 7-1.2 0-2.3-.6-2.7-1.4l-.7 2.7c-.3 1-.9 1.8-1.3 2.4A9 9 0 1012 3z" />
</svg>
