<svg xmlns="http://www.w3.org/2000/svg" width="20" height="20" viewBox="0 0 24 24" aria-hidden="true">
  <path fill="#1f1f1f" d="M12 3.1a8.7 8.7 0 0 0-7.3 13.4L3.6 21l4.6-1.1A8.7 8.7 0 1 0 12 3.1Zm0 1.7a7 7 0 0 1 0 14 7.1 7.1 0 0 1-3.4-.9l-.3-.2-2.2.5.5-2.1-.2-.3A7 7 0 0 1 12 4.8Z" />
  <path fill="#1f1f1f" d="M9 8.2c-.2 0-.4.1-.6.3-.3.3-.8.8-.8 1.8s.8 2 1 2.1c.1.2 1.5 2.4 3.7 3.3 1.8.8 2.2.6 2.6.6.4-.1 1.3-.5 1.5-1 .2-.6.2-1 .1-1.1l-.5-.3-1.5-.7c-.2-.1-.4-.1-.6.2l-.6.8c-.1.2-.3.2-.5.1-.3-.1-1-.4-1.8-1.1-.7-.6-1.1-1.4-1.2-1.6-.2-.3 0-.4.1-.5l.4-.5c.1-.1.1-.2.2-.4.1-.1 0-.3 0-.4L9.8 8.5c-.1-.3-.3-.3-.5-.3H9Z" />
</svg>
